<svg width="32" height="32" viewBox="0 0 32 32" fill="none" xmlns="http://www.w3.org/2000/svg"><path d="M23.314 13.225c-.133.14-.592.546-.71.653 0-.455-.014-.757-.053-1.063-.23-1.98-1.33-2.414-2.21-2.428-.08 0-.16 0-.237.007-1.2.1-2.036 1.15-3.154 3.057-.059.1-.118.198-.17.292l.041-.32c.171-1.442.185-2.866-.845-3.53-.387-.25-.87-.35-1.442-.302-.449.038-.946.167-1.482.386-.491-2.943-1.278-4.586-2.535-5.316-.86-.493-1.692-.716-2.471-.65-1.988.167-3.617 2.12-4.846 5.802l1.493.497c1.02-3.054 2.166-4.593 3.499-4.704.47-.038.985.1 1.532.417.835.483 1.458 2.078 1.851 4.732-1.524.973-3.007 2.421-3.989 3.898-1.232 1.859-1.643 4.131-1.044 5.781.369 1.015 1.069 1.703 2.026 1.991a4.147 4.147 0 0 0 1.545.184c2.507-.208 3.844-3.036 3.489-7.376l-.053-.646c-.108-1.348-.174-2.13-.278-2.998.529-.271.992-.428 1.35-.459.213-.017.38.01.495.084.118.076.303.6.136 2.025-.032.271-.074.552-.126.896-.017.108-.129.79-.156.97a8.105 8.105 0 0 0-.094.823c-.018.403.027.705.299.973.202.198.428.285.675.268.223-.018.456-.133.686-.334.505-.438.526-.48 1.765-2.588.564-.96 1.378-2.234 2.005-2.287.268.004.564.09.672 1.04.031.253.042.514.042.927v.354c0 .14.003.24.014.33.066.782.553 1.272 1.211 1.216.087-.007.177-.024.275-.052.439-.125 1.264-.771 1.928-1.47l-1.141-1.083.007.003Zm-11.328 1.487.053.65c.278 3.412-.516 5.53-2.124 5.666a2.409 2.409 0 0 1-.891-.107c-.578-.174-.863-.664-1.003-1.043-.431-1.188-.087-2.9.878-4.356.7-1.056 1.74-2.13 2.892-2.992.06.58.115 1.23.192 2.186l.003-.004Zm16.8 4.03L13.64 27.425c-.56.243-2.775.503-2.775.503s1.285-1.97 1.769-2.244l15.146-8.682 1.002 1.744.004-.004Z" fill="url(#a)"/><defs><linearGradient id="a" x1="5.289" y1="4.001" x2="23.225" y2="25.152" gradientUnits="userSpaceOnUse"><stop stop-color="#006DAB"/><stop offset="1" stop-color="#20CFBA"/></linearGradient></defs></svg>