<?xml version="1.0" encoding="UTF-8"?>
<svg width="20px" height="21px" viewBox="0 0 20 21" version="1.1" xmlns="http://www.w3.org/2000/svg" xmlns:xlink="http://www.w3.org/1999/xlink">
    <!-- Generator: Sketch 60.1 (88133) - https://sketch.com -->
    <title>facebook</title>
    <desc>Created with Sketch.</desc>
    <g id="Blog-home" stroke="none" stroke-width="1" fill="none" fill-rule="evenodd">
        <g id="blog-main" transform="translate(-450.000000, -1222.000000)" fill="#D6D6D6">
            <g id="Group-13" transform="translate(0.000000, 140.000000)">
                <g id="Group-6" transform="translate(140.000000, 680.000000)">
                    <g id="article/3-column">
                        <g id="text" transform="translate(29.000000, 263.823529)">
                            <g id="Group" transform="translate(0.000000, 135.000000)">
                                <g id="social" transform="translate(212.000000, 4.000000)">
                                    <path d="M89,10 C89,4.47714844 84.5228516,0 79,0 C73.4771484,0 69,4.47714844 69,10 C69,14.9912891 72.6568555,19.1283203 77.4375,19.8785156 L77.4375,12.890625 L74.8984375,12.890625 L74.8984375,10 L77.4375,10 L77.4375,7.796875 C77.4375,5.290625 78.9304297,3.90625 81.2146484,3.90625 C82.3087305,3.90625 83.453125,4.1015625 83.453125,4.1015625 L83.453125,6.5625 L82.1921484,6.5625 C80.9499023,6.5625 80.5625,7.33333984 80.5625,8.12416016 L80.5625,10 L83.3359375,10 L82.8925781,12.890625 L80.5625,12.890625 L80.5625,19.8785156 C85.3431445,19.1283203 89,14.9912891 89,10" id="facebook"></path>
                                </g>
                            </g>
                        </g>
                    </g>
                </g>
            </g>
        </g>
    </g>
</svg>